<?xml version="1.0" standalone="no"?><!DOCTYPE svg PUBLIC "-//W3C//DTD SVG 1.1//EN" "http://www.w3.org/Graphics/SVG/1.1/DTD/svg11.dtd"><svg class="icon" width="16px" height="16.00px" viewBox="0 0 1024 1024" version="1.1" xmlns="http://www.w3.org/2000/svg"><path fill="#ffffff" d="M512.916 1.833C230.65 1.833 1.833 230.65 1.833 512.916 1.833 795.184 230.65 1024 512.916 1024 795.183 1024 1024 795.184 1024 512.916 1024 230.65 795.183 1.833 512.916 1.833z m0 952.474c-243.745 0-441.39-197.622-441.39-441.391 0-243.767 197.646-441.39 441.39-441.39 243.791 0 441.391 197.623 441.391 441.39 0 243.769-197.6 441.391-441.391 441.391zM734.337 294.376v-35.073c0-19.25-15.607-34.847-34.847-34.847H327.793c-19.238 0-34.847 15.598-34.847 34.847v35.073H190.494v104.54c0 67.141 52.088 122.236 117.97 127.271 28.971 72.96 95.784 126.898 176.139 137.526V789.75H438.14c-19.283 0-34.847 15.608-34.847 34.846 0 19.239 15.563 34.847 34.847 34.847h162.618c19.238 0 34.846-15.607 34.846-34.847 0-19.237-15.607-34.846-34.846-34.846h-46.463V661.934c75.161-14.077 136.914-66.358 164.478-135.813 65.202-5.729 116.519-60.55 116.519-127.204v-104.54H734.337zM260.188 398.917V364.07h32.759v81.082c0 2.008 0.227 3.948 0.272 5.933-19.465-9.382-33.031-29.153-33.031-52.168z m404.456 46.234c0 83.26-67.742 151.003-151.001 151.003-83.261 0-151.002-67.743-151.002-151.003V294.15h302.003v151.001zM765.6 398.917c0 22.392-12.886 41.641-31.49 51.328 0.046-1.701 0.228-3.38 0.228-5.093V364.07H765.6v34.847z" /></svg>